<svg width="22" height="19" viewBox="0 0 22 19" fill="none" xmlns="http://www.w3.org/2000/svg">
<path d="M20 0.554876C18.89 0.166463 17.67 0 16.5 0C14.55 0 12.45 0.443901 11 1.66463C9.55 0.443901 7.45 0 5.5 0C3.55 0 1.45 0.443901 0 1.66463V17.9225C0 18.1999 0.25 18.4774 0.5 18.4774C0.6 18.4774 0.65 18.4219 0.75 18.4219C2.1 17.7005 4.05 17.2012 5.5 17.2012C7.45 17.2012 9.55 17.6451 11 18.8658C12.35 17.9225 14.8 17.2012 16.5 17.2012C18.15 17.2012 19.85 17.5341 21.25 18.3664C21.35 18.4219 21.4 18.4219 21.5 18.4219C21.75 18.4219 22 18.1444 22 17.867V1.66463C21.4 1.16524 20.75 0.832314 20 0.554876ZM20 15.5365C18.9 15.1481 17.7 14.9816 16.5 14.9816C14.8 14.9816 12.35 15.703 11 16.6463V3.88413C12.35 2.94084 14.8 2.2195 16.5 2.2195C17.7 2.2195 18.9 2.38597 20 2.77438V15.5365Z" fill="url(#paint0_linear_7_71)"/>
<path d="M16.5 6.65852C17.38 6.65852 18.23 6.7584 19 6.94706V5.26024C18.21 5.09377 17.36 4.9939 16.5 4.9939C14.8 4.9939 13.26 5.31572 12 5.91499V7.75718C13.13 7.04694 14.7 6.65852 16.5 6.65852Z" fill="url(#paint1_linear_7_71)"/>
<path d="M12 8.86689V10.7091C13.13 9.99884 14.7 9.61043 16.5 9.61043C17.38 9.61043 18.23 9.71031 19 9.89896V8.21214C18.21 8.04568 17.36 7.9458 16.5 7.9458C14.8 7.9458 13.26 8.27873 12 8.86689Z" fill="url(#paint2_linear_7_71)"/>
<path d="M16.5 10.9088C14.8 10.9088 13.26 11.2306 12 11.8299V13.6721C13.13 12.9619 14.7 12.5734 16.5 12.5734C17.38 12.5734 18.23 12.6733 19 12.862V11.1752C18.21 10.9976 17.36 10.9088 16.5 10.9088Z" fill="url(#paint3_linear_7_71)"/>
<defs>
<linearGradient id="paint0_linear_7_71" x1="11" y1="0" x2="11" y2="18.8658" gradientUnits="userSpaceOnUse">
<stop stop-color="#6BB7FD"/>
<stop offset="1" stop-color="#1543B9"/>
</linearGradient>
<linearGradient id="paint1_linear_7_71" x1="15.5" y1="4.9939" x2="15.5" y2="7.75718" gradientUnits="userSpaceOnUse">
<stop stop-color="#6BB7FD"/>
<stop offset="1" stop-color="#1543B9"/>
</linearGradient>
<linearGradient id="paint2_linear_7_71" x1="15.5" y1="7.9458" x2="15.5" y2="10.7091" gradientUnits="userSpaceOnUse">
<stop stop-color="#6BB7FD"/>
<stop offset="1" stop-color="#1543B9"/>
</linearGradient>
<linearGradient id="paint3_linear_7_71" x1="15.5" y1="10.9088" x2="15.5" y2="13.6721" gradientUnits="userSpaceOnUse">
<stop stop-color="#6BB7FD"/>
<stop offset="1" stop-color="#1543B9"/>
</linearGradient>
</defs>
</svg>
