<svg width="22" height="23" viewBox="0 0 22 23" fill="none" xmlns="http://www.w3.org/2000/svg">
<path d="M14.2827 18.8103L13.4202 21.5014C13.3526 21.7049 13.2342 21.8714 13.065 22.0008C12.8959 22.1303 12.7099 22.195 12.5069 22.195C12.1687 22.195 11.8938 22.0424 11.6824 21.7373C11.471 21.4321 11.433 21.0945 11.5683 20.7246L15.4244 9.57161C15.5089 9.36815 15.6358 9.20169 15.8049 9.07222C15.974 8.94275 16.1601 8.87801 16.363 8.87801H17.1241C17.327 8.87801 17.5131 8.94275 17.6822 9.07222C17.8513 9.20169 17.9782 9.36815 18.0627 9.57161L21.9188 20.7524C22.0541 21.1038 22.0203 21.4321 21.8173 21.7373C21.6144 22.0424 21.3438 22.195 21.0055 22.195C20.7857 22.195 20.5954 22.1303 20.4347 22.0008C20.2741 21.8714 20.1514 21.6956 20.0669 21.4737L19.2043 18.8103H14.2827ZM8.16882 13.2893L3.75461 18.089C3.56857 18.2924 3.33602 18.3988 3.05696 18.408C2.77791 18.4173 2.5369 18.3109 2.33395 18.089C2.14791 17.8855 2.05489 17.6266 2.05489 17.3121C2.05489 16.9977 2.14791 16.7388 2.33395 16.5353L6.74816 11.7079C6.15621 11.0605 5.61923 10.3207 5.13722 9.48838C4.65521 8.65606 4.21125 7.71277 3.80535 6.65851H5.93635C6.2746 7.37985 6.61285 8.00871 6.95111 8.54509C7.28936 9.08147 7.69526 9.61785 8.16882 10.1542C8.72694 9.54386 9.3062 8.68843 9.9066 7.58793C10.507 6.48742 10.9594 5.43778 11.2638 4.43901H1.01476C0.727245 4.43901 0.486239 4.33266 0.291744 4.11995C0.0972479 3.90725 0 3.64368 0 3.32926C0 3.01483 0.0972479 2.75126 0.291744 2.53856C0.486239 2.32585 0.727245 2.2195 1.01476 2.2195H7.10332V1.10975C7.10332 0.795322 7.20057 0.531756 7.39506 0.319054C7.58956 0.106351 7.83057 0 8.11808 0C8.4056 0 8.6466 0.106351 8.8411 0.319054C9.03559 0.531756 9.13284 0.795322 9.13284 1.10975V2.2195H15.2214C15.5089 2.2195 15.7499 2.32585 15.9444 2.53856C16.1389 2.75126 16.2362 3.01483 16.2362 3.32926C16.2362 3.64368 16.1389 3.90725 15.9444 4.11995C15.7499 4.33266 15.5089 4.43901 15.2214 4.43901H13.2934C12.9382 5.77071 12.4054 7.1394 11.6951 8.54509C10.9848 9.95077 10.2829 11.0235 9.58948 11.7634L12.0249 14.4823L11.2638 16.7572L8.16882 13.2893ZM14.917 16.8682H18.5701L16.7435 11.2085L14.917 16.8682Z" fill="url(#paint0_linear_13_3)"/>
<defs>
<linearGradient id="paint0_linear_13_3" x1="11" y1="0" x2="11" y2="22.195" gradientUnits="userSpaceOnUse">
<stop stop-color="#6BB7FD"/>
<stop offset="1" stop-color="#1543B9"/>
</linearGradient>
</defs>
</svg>
