<svg width="284" height="38" viewBox="0 0 284 38" fill="none" xmlns="http://www.w3.org/2000/svg">
<path d="M7.992 3.736V30.76H20.952L20.136 37H0.119995V3.736H7.992Z" fill="#141414"/>
<path d="M45.3862 37H38.8102L38.4742 33.784C36.6182 36.472 34.0422 37.816 30.7462 37.816C28.4102 37.816 26.6342 37.112 25.4182 35.704C24.2342 34.296 23.6422 32.328 23.6422 29.8V11.512H31.2262V28.84C31.2262 30.088 31.4182 30.968 31.8022 31.48C32.2182 31.96 32.8422 32.2 33.6742 32.2C35.2742 32.2 36.6502 31.208 37.8022 29.224V11.512H45.3862V37Z" fill="#141414"/>
<path d="M71.607 29.608C71.607 30.568 71.735 31.272 71.991 31.72C72.279 32.168 72.727 32.504 73.335 32.728L71.751 37.672C70.183 37.544 68.903 37.208 67.911 36.664C66.919 36.088 66.151 35.192 65.607 33.976C63.943 36.536 61.383 37.816 57.927 37.816C55.399 37.816 53.383 37.08 51.879 35.608C50.375 34.136 49.623 32.216 49.623 29.848C49.623 27.064 50.647 24.936 52.695 23.464C54.743 21.992 57.703 21.256 61.575 21.256H64.167V20.152C64.167 18.648 63.847 17.624 63.207 17.08C62.567 16.504 61.447 16.216 59.847 16.216C59.015 16.216 58.007 16.344 56.823 16.6C55.639 16.824 54.423 17.144 53.175 17.56L51.447 12.568C53.047 11.96 54.679 11.496 56.343 11.176C58.039 10.856 59.607 10.696 61.047 10.696C64.695 10.696 67.367 11.448 69.063 12.952C70.759 14.456 71.607 16.712 71.607 19.72V29.608ZM60.135 32.392C61.863 32.392 63.207 31.576 64.167 29.944V25.432H62.295C60.567 25.432 59.271 25.736 58.407 26.344C57.575 26.952 57.159 27.896 57.159 29.176C57.159 30.2 57.415 31 57.927 31.576C58.471 32.12 59.207 32.392 60.135 32.392Z" fill="#141414"/>
<path d="M92.5759 10.696C94.7839 10.696 96.5119 11.368 97.7599 12.712C99.0079 14.056 99.6319 15.944 99.6319 18.376V37H92.0479V19.672C92.0479 18.392 91.8399 17.512 91.4239 17.032C91.0399 16.52 90.4479 16.264 89.6479 16.264C88.1119 16.264 86.6399 17.368 85.2319 19.576V37H77.6479V11.512H84.2719L84.7999 14.536C85.8879 13.256 87.0559 12.296 88.3039 11.656C89.5839 11.016 91.0079 10.696 92.5759 10.696Z" fill="#141414"/>
<path d="M149.91 37H142.182L141.606 23.992C141.446 20.888 141.366 18.12 141.366 15.688C141.366 13.832 141.414 12.072 141.51 10.408L136.374 33.496H128.934L123.462 10.408C123.654 13.192 123.75 15.816 123.75 18.28C123.75 20.136 123.702 22.072 123.606 24.088L123.03 37H115.35L117.846 3.736H127.782L132.774 26.296L137.43 3.736H147.414L149.91 37Z" fill="#141414"/>
<path d="M176.7 23.752C176.7 24.808 176.652 25.72 176.556 26.488H160.764C161.02 28.632 161.628 30.136 162.588 31C163.548 31.864 164.876 32.296 166.572 32.296C167.596 32.296 168.588 32.12 169.548 31.768C170.508 31.384 171.548 30.808 172.668 30.04L175.788 34.264C172.812 36.632 169.5 37.816 165.852 37.816C161.724 37.816 158.556 36.6 156.348 34.168C154.14 31.736 153.036 28.472 153.036 24.376C153.036 21.784 153.5 19.464 154.428 17.416C155.356 15.336 156.716 13.704 158.508 12.52C160.3 11.304 162.444 10.696 164.94 10.696C168.62 10.696 171.5 11.848 173.58 14.152C175.66 16.456 176.7 19.656 176.7 23.752ZM169.26 21.592C169.196 17.688 167.82 15.736 165.132 15.736C163.82 15.736 162.796 16.216 162.06 17.176C161.356 18.136 160.924 19.72 160.764 21.928H169.26V21.592Z" fill="#141414"/>
<path d="M195.888 10.696C198.096 10.696 199.824 11.368 201.072 12.712C202.32 14.056 202.944 15.944 202.944 18.376V37H195.36V19.672C195.36 18.392 195.152 17.512 194.736 17.032C194.352 16.52 193.76 16.264 192.96 16.264C191.424 16.264 189.952 17.368 188.544 19.576V37H180.96V11.512H187.584L188.112 14.536C189.2 13.256 190.368 12.296 191.616 11.656C192.896 11.016 194.32 10.696 195.888 10.696Z" fill="#141414"/>
<path d="M231.511 1.38399V37H224.792L224.408 34.024C222.616 36.552 220.2 37.816 217.16 37.816C213.991 37.816 211.575 36.6 209.911 34.168C208.279 31.736 207.464 28.408 207.464 24.184C207.464 21.592 207.895 19.272 208.759 17.224C209.623 15.176 210.84 13.576 212.408 12.424C214.008 11.272 215.832 10.696 217.88 10.696C220.312 10.696 222.327 11.496 223.927 13.096V0.567993L231.511 1.38399ZM219.511 32.248C221.271 32.248 222.743 31.288 223.927 29.368V18.376C223.319 17.64 222.695 17.096 222.055 16.744C221.447 16.392 220.743 16.216 219.943 16.216C218.535 16.216 217.415 16.872 216.583 18.184C215.751 19.496 215.335 21.512 215.335 24.232C215.335 27.208 215.687 29.288 216.391 30.472C217.127 31.656 218.167 32.248 219.511 32.248Z" fill="#141414"/>
<path d="M259.669 23.752C259.669 24.808 259.621 25.72 259.525 26.488H243.733C243.989 28.632 244.597 30.136 245.557 31C246.517 31.864 247.845 32.296 249.541 32.296C250.565 32.296 251.557 32.12 252.517 31.768C253.477 31.384 254.517 30.808 255.637 30.04L258.757 34.264C255.781 36.632 252.469 37.816 248.821 37.816C244.693 37.816 241.525 36.6 239.317 34.168C237.109 31.736 236.005 28.472 236.005 24.376C236.005 21.784 236.469 19.464 237.397 17.416C238.325 15.336 239.685 13.704 241.477 12.52C243.269 11.304 245.413 10.696 247.909 10.696C251.589 10.696 254.469 11.848 256.549 14.152C258.629 16.456 259.669 19.656 259.669 23.752ZM252.229 21.592C252.165 17.688 250.789 15.736 248.101 15.736C246.789 15.736 245.765 16.216 245.029 17.176C244.325 18.136 243.893 19.72 243.733 21.928H252.229V21.592Z" fill="#141414"/>
<path d="M272.905 10.696C274.729 10.696 276.441 10.968 278.041 11.512C279.641 12.056 281.049 12.824 282.265 13.816L279.481 18.088C277.401 16.776 275.305 16.12 273.193 16.12C272.201 16.12 271.433 16.296 270.889 16.648C270.377 16.968 270.121 17.432 270.121 18.04C270.121 18.52 270.233 18.92 270.457 19.24C270.713 19.528 271.209 19.832 271.945 20.152C272.681 20.472 273.817 20.856 275.353 21.304C278.009 22.072 279.977 23.08 281.257 24.328C282.569 25.544 283.225 27.24 283.225 29.416C283.225 31.144 282.729 32.648 281.737 33.928C280.745 35.176 279.385 36.136 277.657 36.808C275.929 37.48 274.009 37.816 271.897 37.816C269.753 37.816 267.753 37.48 265.897 36.808C264.073 36.136 262.521 35.208 261.241 34.024L264.937 29.896C267.081 31.56 269.337 32.392 271.705 32.392C272.857 32.392 273.753 32.184 274.393 31.768C275.065 31.352 275.401 30.76 275.401 29.992C275.401 29.384 275.273 28.904 275.017 28.552C274.761 28.2 274.265 27.88 273.529 27.592C272.793 27.272 271.625 26.888 270.025 26.44C267.497 25.704 265.609 24.68 264.361 23.368C263.113 22.056 262.489 20.424 262.489 18.472C262.489 17 262.905 15.688 263.737 14.536C264.601 13.352 265.817 12.424 267.385 11.752C268.985 11.048 270.825 10.696 272.905 10.696Z" fill="#141414"/>
</svg>
